<svg width="95" height="16" viewBox="0 0 95 16" fill="none" xmlns="http://www.w3.org/2000/svg">
<path fill-rule="evenodd" clip-rule="evenodd" d="M8 12L3.29772 14.4721L4.19577 9.23607L0.391548 5.52786L5.64886 4.76393L8 0L10.3511 4.76393L15.6085 5.52786L11.8042 9.23607L12.7023 14.4721L8 12Z" fill="#FFC05D"/>
<path fill-rule="evenodd" clip-rule="evenodd" d="M48 12L43.2977 14.4721L44.1958 9.23607L40.3915 5.52786L45.6489 4.76393L48 0L50.3511 4.76393L55.6085 5.52786L51.8042 9.23607L52.7023 14.4721L48 12Z" fill="#FFC05D"/>
<path fill-rule="evenodd" clip-rule="evenodd" d="M28 12L23.2977 14.4721L24.1958 9.23607L20.3915 5.52786L25.6489 4.76393L28 0L30.3511 4.76393L35.6085 5.52786L31.8042 9.23607L32.7023 14.4721L28 12Z" fill="#FFC05D"/>
<path fill-rule="evenodd" clip-rule="evenodd" d="M67 12L62.2977 14.4721L63.1958 9.23607L59.3915 5.52786L64.6489 4.76393L67 0L69.3511 4.76393L74.6085 5.52786L70.8042 9.23607L71.7023 14.4721L67 12Z" fill="#FFC05D"/>
<path fill-rule="evenodd" clip-rule="evenodd" d="M87 12L82.2977 14.4721L83.1958 9.23607L79.3915 5.52786L84.6489 4.76393L87 0L89.3511 4.76393L94.6085 5.52786L90.8042 9.23607L91.7023 14.4721L87 12Z" fill="#FFC05D"/>
</svg>
